<svg xmlns="http://www.w3.org/2000/svg" width="18.928" height="19" viewBox="0 0 18.928 19">
  <g id="telephone" transform="translate(-0.912 0)">
    <path id="Path_7" data-name="Path 7" d="M4.747,12.63a20.157,20.157,0,0,0,6.7,5.252,10.435,10.435,0,0,0,3.752,1.11c.091,0,.177.008.268.008a3.107,3.107,0,0,0,2.409-1.035.086.086,0,0,0,.016-.02,10.144,10.144,0,0,1,.76-.787c.185-.177.374-.362.555-.551a1.9,1.9,0,0,0-.008-2.831l-2.366-2.366a1.915,1.915,0,0,0-1.386-.638,1.98,1.98,0,0,0-1.4.634l-1.409,1.409c-.13-.075-.264-.142-.39-.2a4.869,4.869,0,0,1-.433-.236A14.917,14.917,0,0,1,8.255,9.13a8.59,8.59,0,0,1-1.2-1.921c.37-.335.717-.685,1.051-1.028.118-.122.24-.244.362-.366A2.018,2.018,0,0,0,9.117,4.4,2,2,0,0,0,8.464,2.98L7.291,1.807c-.138-.138-.268-.272-.4-.409-.26-.268-.531-.543-.8-.791A1.963,1.963,0,0,0,4.7,0,2.021,2.021,0,0,0,3.3.61L1.83,2.083a3.025,3.025,0,0,0-.9,1.937,7.286,7.286,0,0,0,.547,3.15A18.323,18.323,0,0,0,4.747,12.63ZM1.889,4.1a2.082,2.082,0,0,1,.626-1.339L3.98,1.3A1.06,1.06,0,0,1,4.7.965a1.006,1.006,0,0,1,.709.343c.264.244.512.5.78.772.134.138.272.276.409.417L7.775,3.669a1.069,1.069,0,0,1,.37.736,1.069,1.069,0,0,1-.37.736c-.122.122-.244.248-.366.37-.366.37-.709.72-1.087,1.055l-.02.02a.77.77,0,0,0-.2.874c0,.012.008.02.012.031A9.266,9.266,0,0,0,7.5,9.74a15.744,15.744,0,0,0,3.8,3.457,5.635,5.635,0,0,0,.52.283,4.868,4.868,0,0,1,.433.236l.043.024a.823.823,0,0,0,.382.1.835.835,0,0,0,.587-.268L14.732,12.1a1.042,1.042,0,0,1,.72-.35.989.989,0,0,1,.7.35l2.374,2.37a.949.949,0,0,1-.012,1.484c-.165.177-.339.346-.524.524a11.338,11.338,0,0,0-.823.854,2.161,2.161,0,0,1-1.689.717c-.067,0-.138,0-.2-.008a9.48,9.48,0,0,1-3.394-1.016,19.149,19.149,0,0,1-6.382-5,17.539,17.539,0,0,1-3.11-5.177,6.35,6.35,0,0,1-.5-2.744Z" transform="translate(0 0)" fill="#ff8c42"/>
  </g>
</svg>
